<svg width="24" height="24" viewBox="0 0 24 24" fill="none" xmlns="http://www.w3.org/2000/svg" role="img" aria-labelledby="ideasTitle ideasDesc">
  <title id="ideasTitle">My ideas icon</title>
  <desc id="ideasDesc">A simple light bulb icon for ideas.</desc>
  <path d="M12 3.5C8.41 3.5 5.5 6.41 5.5 10C5.5 12.23 6.58 14.19 8.47 15.45C9.13 15.89 9.5 16.63 9.5 17.43V17.75C9.5 18.44 10.06 19 10.75 19H13.25C13.94 19 14.5 18.44 14.5 17.75V17.43C14.5 16.63 14.87 15.89 15.53 15.45C17.42 14.19 18.5 12.23 18.5 10C18.5 6.41 15.59 3.5 12 3.5Z" stroke="#66727A" stroke-width="1.6" stroke-linejoin="round"/>
  <path d="M10 20.5H14" stroke="#66727A" stroke-width="1.6" stroke-linecap="round"/>
  <path d="M10.5 9.75C10.5 8.92 11.17 8.25 12 8.25" stroke="#AAB4BA" stroke-width="1.6" stroke-linecap="round"/>
</svg>